<svg width="40" height="36" viewBox="0 0 40 36" fill="none" xmlns="http://www.w3.org/2000/svg">
<rect width="40" height="36" rx="10" fill="#FFCCAD"/>
<path d="M9.18159 7.96997C8.18993 9.12947 7.52743 10.4502 7.19409 11.9322" stroke="#FEE2B3" stroke-width="2"/>
<path d="M7.19408 11.9321C7.14741 12.0844 7.1195 12.2888 7.11033 12.5453C7.10783 12.6165 7.08033 12.6735 7.02783 12.7163" stroke="#FEDBA8" stroke-width="2"/>
<path d="M7.02785 12.7162C6.78285 12.8894 6.55243 13.0968 6.3366 13.3383C3.70785 16.2847 4.22785 20.3819 7.4341 22.7726C7.46494 22.7951 7.46327 22.8153 7.4291 22.8333C6.35327 23.3951 6.02201 24.2178 6.43535 25.3016C6.46169 25.3711 6.45775 25.447 6.42431 25.5139C6.39088 25.5807 6.33047 25.6336 6.25535 25.6616C5.1491 26.0744 4.2016 25.4084 4.5191 24.3431C4.52954 24.3076 4.55407 24.2771 4.58785 24.2576L5.06285 23.9853C5.09785 23.9651 5.10618 23.9381 5.08785 23.9043C4.73535 23.2698 3.9316 23.7569 3.6816 24.1799C3.47785 24.5287 3.46285 25.0462 3.5516 25.4343C3.8691 26.8169 5.0366 27.9757 6.2691 28.8419" stroke="#F8CC98" stroke-width="2"/>
<path d="M6.26904 28.8419C7.94279 29.9579 9.88154 30.6307 11.9028 31.0784C11.9219 31.0825 11.942 31.0821 11.9609 31.0771C11.9798 31.0722 11.9969 31.0629 12.0107 31.0502C12.0244 31.0375 12.0342 31.0218 12.0392 31.0047C12.0442 30.9876 12.0441 30.9695 12.039 30.9524C12.014 30.8699 12.027 30.7732 12.0778 30.6622" stroke="#F7C591" stroke-width="2"/>
<path d="M12.0779 30.6622C12.0771 30.7965 12.1858 30.8824 12.4041 30.9199" stroke="#B4E1C6" stroke-width="2"/>
<path d="M36.3666 25.6954C36.5125 25.3624 36.5766 25.0121 36.5591 24.6446C36.5366 24.1744 36.2991 23.7255 35.8279 23.532C35.4429 23.3745 35.1558 23.4514 34.9666 23.7626C34.9574 23.7777 34.9519 23.7944 34.9503 23.8116C34.9487 23.8288 34.9512 23.846 34.9576 23.8622C34.964 23.8784 34.9741 23.8931 34.9873 23.9054C35.0005 23.9177 35.0165 23.9274 35.0341 23.9336C35.7491 24.1935 35.6754 25.0665 35.1391 25.4254C34.7216 25.7059 34.26 25.7437 33.7541 25.539C33.5116 25.4411 33.5054 25.2859 33.6166 25.0935C34.1066 24.2475 33.6916 23.3002 32.9054 22.7467C32.9014 22.744 32.8981 22.7405 32.8959 22.7364C32.8936 22.7324 32.8923 22.7279 32.8922 22.7234C32.8921 22.7189 32.8931 22.7144 32.8952 22.7102C32.8972 22.7061 32.9003 22.7024 32.9041 22.6995C36.3554 20.1007 36.7541 15.6176 33.4279 12.7657" stroke="#F7C591" stroke-width="2"/>
<path d="M33.4279 12.7658C33.2479 11.4668 32.8174 10.2544 32.1366 9.12864C31.0924 7.40289 29.6062 5.98313 27.6779 4.86938" stroke="#F8CC98" stroke-width="2"/>
<path d="M27.6779 4.86943C24.6616 3.06043 20.9291 2.5508 17.3979 3.18643C14.0287 3.79243 11.29 5.38693 9.18164 7.96993" stroke="#FEDBA8" stroke-width="2"/>
<path d="M27.6779 4.86938C27.6412 4.87238 27.6166 4.88288 27.6041 4.90088C27.6001 4.9073 27.5978 4.91442 27.5971 4.92172C27.5965 4.92903 27.5977 4.93634 27.6006 4.94312C27.6034 4.94991 27.6079 4.956 27.6137 4.96095C27.6195 4.9659 27.6265 4.9696 27.6341 4.97176C27.7633 5.00926 27.8324 5.08239 27.8416 5.19114C27.8435 5.21064 27.8499 5.22952 27.8602 5.24656C27.8705 5.2636 27.8846 5.27844 27.9016 5.29014C28.8341 5.93589 29.5216 7.09464 29.9191 8.06776C30.8379 10.3189 30.0454 12.9626 27.5591 14.019C26.9116 14.2946 26.4091 14.2181 25.7579 14.0134C24.4116 13.5893 23.0579 12.7309 22.0054 11.8748C21.8537 11.7518 21.6529 11.6111 21.4029 11.4529C21.2087 11.3299 21.0087 11.1863 20.8029 11.022" stroke="#F8A942" stroke-width="2"/>
<path d="M20.8029 11.0219C19.9196 10.1002 19.2654 9.12854 18.8404 8.10704C18.6521 7.65254 18.4725 7.31767 18.3016 7.10242" stroke="#FDB16F" stroke-width="2"/>
<path d="M18.3016 7.10252L18.2416 6.11027C18.2422 6.09714 18.2371 6.08432 18.2272 6.07461C18.2174 6.06491 18.2037 6.05912 18.1891 6.05852C18.1745 6.05793 18.1602 6.06257 18.1495 6.07143C18.1387 6.08029 18.1322 6.09265 18.1316 6.10577C17.7099 8.45402 16.702 10.566 15.1078 12.4418C14.3391 13.3463 13.3616 14.1596 12.3766 14.9179C12.366 14.926 12.3536 14.932 12.3403 14.9354C12.327 14.9388 12.313 14.9397 12.2993 14.9379C12.2855 14.9361 12.2724 14.9316 12.2607 14.9249C12.2491 14.9182 12.2391 14.9092 12.2316 14.8988C11.3178 13.6196 9.72658 15.0372 8.90658 15.6649C8.25908 16.1622 7.65408 15.4287 7.47408 14.937C7.21741 14.2373 7.06867 13.497 7.02783 12.7163" stroke="#F8A942" stroke-width="2"/>
<path d="M7.19409 11.9321C7.86659 11.4949 8.4641 11.0381 8.9866 10.5619C9.00066 10.5491 9.01834 10.5399 9.03774 10.5355C9.05713 10.531 9.07751 10.5315 9.09667 10.5367C9.11583 10.5419 9.13305 10.5517 9.14648 10.565C9.1599 10.5784 9.16902 10.5948 9.17284 10.6125C9.40909 11.6993 10.1241 12.7433 11.5153 12.2719C12.3691 11.9816 13.0341 11.2414 13.4741 10.5124C13.4941 10.4794 13.5228 10.4543 13.5603 10.437C13.8003 10.3245 13.8703 10.2008 13.9178 9.93863C13.947 9.77813 14.0162 9.60188 14.1253 9.40988C14.6678 8.44763 15.1474 7.34626 15.5641 6.10576C15.8503 5.25301 15.5916 4.61063 14.4603 4.92788C12.9037 5.36438 11.5545 6.10351 10.4128 7.14526C10.3153 7.23526 9.31035 8.4255 9.1816 7.96988" stroke="#FEBF5D" stroke-width="2"/>
<path d="M33.4279 12.7657C33.4604 13.4385 33.3866 14.0437 33.2066 14.5815C33.1291 14.8125 32.9979 15.0026 32.8129 15.1519C31.2316 16.4276 28.8929 15.3037 27.2404 14.5421C26.9754 14.4199 26.7374 14.4776 26.5266 14.7154" stroke="#F1932B" stroke-width="2"/>
<path d="M26.5266 14.7154C25.7607 14.2737 24.9474 14.0539 24.0865 14.0562" stroke="#D47F3B" stroke-width="2"/>
<path d="M24.0866 14.0561C22.8324 13.2326 21.7379 12.2212 20.8029 11.022" stroke="#F7A25F" stroke-width="2"/>
<path d="M18.3015 7.10242C17.6115 9.99142 15.8128 12.1525 13.6978 14.3137C13.3803 14.6377 13.0703 15.0708 12.7065 15.4263" stroke="#F7A25F" stroke-width="2"/>
<path d="M12.7066 15.4264C11.7454 16.1149 10.6117 16.6369 9.4804 17.052C9.41012 17.0779 9.35001 17.1222 9.30771 17.1791C9.26541 17.236 9.24285 17.303 9.2429 17.3715L9.24915 18.9398C9.24915 19.0763 9.21373 19.0841 9.1429 18.9634C8.80915 18.3986 8.32415 16.9283 7.3079 17.4795C6.5304 17.9014 6.18915 18.6236 6.19415 19.4449C6.20415 21.183 8.0054 22.7389 10.0066 22.1516C10.0483 22.1396 10.0825 22.149 10.1091 22.1798C10.1258 22.1985 10.135 22.2236 10.1367 22.2551" stroke="#F8B572" stroke-width="2"/>
<path d="M10.1365 22.2551C9.73154 22.3778 10.3115 23.2114 10.439 23.3363C10.4562 23.3528 10.4678 23.3734 10.4725 23.3956C10.4771 23.4178 10.4747 23.4408 10.4654 23.4619C10.4562 23.4831 10.4405 23.5015 10.4201 23.5151C10.3997 23.5287 10.3755 23.5369 10.3503 23.5387C9.09654 23.6299 8.10904 24.7706 8.69904 25.8698C8.82404 26.1038 9.08654 26.286 9.30154 26.4514C9.41487 26.5399 9.39779 26.5961 9.25029 26.6201C8.39904 26.7574 8.05529 27.0578 7.55904 27.6686C7.44321 27.8126 7.28987 27.9495 7.09904 28.0793C6.77904 28.2983 6.50238 28.5525 6.26904 28.842" stroke="#F1932B" stroke-width="2"/>
<path d="M24.0866 14.0562L23.5441 14.3757" stroke="#D88768" stroke-width="2"/>
<path d="M23.5442 14.3757C22.1708 13.5387 20.9942 12.5131 20.0142 11.2988" stroke="#FDB899" stroke-width="2"/>
<path d="M20.014 11.2988C19.4774 10.5923 19.0182 9.86441 18.6366 9.11516C18.6066 9.05666 18.5682 9.05216 18.5215 9.10166C18.4457 9.18266 18.3628 9.30078 18.2728 9.45603C17.3445 11.0603 16.1107 12.6169 14.5715 14.1259C14.5015 14.1945 14.5078 14.253 14.5803 14.3138" stroke="#FDBD9F" stroke-width="2"/>
<path d="M14.5803 14.3137C13.9095 14.592 13.312 14.9842 12.7878 15.4905" stroke="#E4926D" stroke-width="2"/>
<path d="M12.7878 15.4906C12.7728 15.4231 12.7457 15.4017 12.7065 15.4265" stroke="#FDBD9F" stroke-width="2"/>
<path d="M36.3666 25.6953C35.7816 27.0419 34.4866 28.0859 33.1816 28.8847" stroke="#DFB386" stroke-width="2"/>
<path d="M33.1816 28.8848L33.1054 28.8646C33.0504 28.8503 33.0328 28.8192 33.0528 28.7712L33.1041 28.6508C33.1174 28.6186 33.1195 28.5859 33.1104 28.5529C32.9554 27.9724 32.6074 27.5153 32.0666 27.1816C32.0299 27.1598 32.0124 27.1291 32.0141 27.0893C32.0549 26.1248 31.5633 25.5552 30.5391 25.3804C30.5239 25.3777 30.5098 25.371 30.4987 25.3613C30.4875 25.3515 30.4797 25.3391 30.4761 25.3255C30.4726 25.3119 30.4735 25.2976 30.4786 25.2844C30.4838 25.2712 30.4931 25.2597 30.5053 25.2511C30.7795 25.0673 31.0808 24.9357 31.4091 24.8562C31.4315 24.8508 31.452 24.8403 31.4685 24.8256C31.485 24.811 31.497 24.7927 31.5033 24.7726C31.5096 24.7525 31.51 24.7313 31.5044 24.7111C31.4989 24.6908 31.4876 24.6722 31.4716 24.6571L30.9841 24.1947C30.9591 24.1714 30.9524 24.1441 30.9641 24.1126C31.1008 23.7481 31.2845 23.4353 31.5153 23.1743C31.927 22.7093 32.2687 22.2649 32.5404 21.8412" stroke="#E47F1E" stroke-width="2"/>
<path d="M32.5403 21.8412C32.9753 21.5315 33.2895 21.2453 33.4828 20.9828C34.2345 19.9621 34.2628 18.9301 33.5678 17.8868C33.3103 17.501 32.2378 16.9666 31.9328 17.5628C31.7353 17.9483 31.5362 18.332 31.3353 18.7137C31.2912 18.7977 31.2183 18.8333 31.1166 18.8206C30.9253 18.7958 30.9891 17.51 30.9841 17.3007C30.983 17.2412 30.9617 17.1835 30.923 17.1352C30.8844 17.0869 30.8302 17.0505 30.7678 17.0307L28.1366 16.2095" stroke="#F59A58" stroke-width="2"/>
<path d="M28.1366 16.2093C27.7241 15.5883 27.1874 15.0903 26.5266 14.7153" stroke="#D27834" stroke-width="2"/>
<path d="M28.1365 16.2094L28.1565 16.5469C28.1577 16.5648 28.1533 16.5826 28.1437 16.5983C28.1342 16.614 28.12 16.627 28.1027 16.6358C28.0853 16.6446 28.0656 16.6488 28.0458 16.648C28.0259 16.6472 28.0067 16.6414 27.9903 16.6313C27.3045 16.203 26.5657 15.8464 25.774 15.5614" stroke="#D88768" stroke-width="2"/>
<path d="M25.7741 15.5614C25.4199 15.4009 25.0545 15.3735 24.6779 15.4793" stroke="#D9795F" stroke-width="2"/>
<path d="M18.3354 27.1252C18.0554 27.5077 17.4879 27.4605 17.0466 27.4931" stroke="#F59A58" stroke-width="2"/>
<path d="M17.0466 27.4932C16.4566 27.4617 16.0641 27.4692 15.8691 27.5157C14.7441 27.7857 13.6204 28.3381 12.9029 29.1728C12.5741 29.5542 12.1379 30.1741 12.0779 30.6623" stroke="#ADA759" stroke-width="2"/>
<path d="M20.0141 11.2988C19.7975 11.6881 19.7841 11.9652 19.9741 12.1302C19.9983 12.1512 19.9996 12.1733 19.9779 12.1966L19.7629 12.4283C19.7329 12.4613 19.7179 12.4992 19.7179 12.542L19.7292 13.8368C19.7292 13.8815 19.738 13.9257 19.7554 13.9673C19.8404 14.1788 19.7404 14.414 19.7517 14.585C19.7767 14.933 19.7883 15.2806 19.7866 15.6278C19.7858 15.7561 19.7496 15.9342 19.6779 16.1622C19.5416 16.5998 19.7104 16.9801 19.6279 17.402C19.4792 18.1613 19.5204 18.86 19.7129 19.6081C19.7721 19.8368 19.7862 20.0712 19.7554 20.3112C19.7531 20.3277 19.7547 20.3445 19.7599 20.3605C19.7651 20.3765 19.774 20.3912 19.7858 20.4039C19.7977 20.4166 19.8124 20.4269 19.8288 20.4342C19.8453 20.4415 19.8633 20.4456 19.8816 20.4462C20.2033 20.4575 20.4529 20.5231 20.6304 20.6431" stroke="#FFCCAD" stroke-width="2"/>
<path d="M20.6304 20.6429C20.8012 20.9609 20.8025 21.2658 20.6341 21.5576" stroke="#FDBD9F" stroke-width="2"/>
<path d="M20.6341 21.5577C20.5391 21.5089 20.4132 21.5618 20.2566 21.7163C20.2444 21.7283 20.229 21.7373 20.2118 21.7424C20.1946 21.7474 20.1763 21.7484 20.1586 21.7453C20.1409 21.7421 20.1243 21.7349 20.1106 21.7243C20.0969 21.7137 20.0865 21.7001 20.0803 21.6848C20.0362 21.5738 19.9491 21.51 19.8191 21.4935C19.8022 21.4918 19.7853 21.4959 19.7718 21.5049C19.7584 21.5139 19.7493 21.5272 19.7466 21.5419C19.6924 21.8239 19.777 22.0234 20.0003 22.1404" stroke="#FEE7D8" stroke-width="2"/>
<path d="M20.0003 22.1403C19.9345 22.1575 19.8958 22.1901 19.8841 22.2381C19.877 22.2671 19.8767 22.297 19.8831 22.3261C19.8895 22.3551 19.9026 22.3826 19.9214 22.4068C19.9402 22.4311 19.9644 22.4515 19.9924 22.4668C20.0204 22.4821 20.0516 22.492 20.0841 22.4958C20.3349 22.525 20.5837 22.4973 20.8303 22.4125" stroke="#FDBD9F" stroke-width="2"/>
<path d="M20.8303 22.4126C21.0778 22.5532 20.7716 22.8705 20.8753 23.118C20.8912 23.1547 20.9132 23.1877 20.9416 23.217C21.0274 23.3055 21.0537 23.4056 21.0203 23.5173C21.0095 23.5526 21.0241 23.5713 21.0641 23.5736C21.1607 23.5796 21.2216 23.6171 21.2466 23.6861" stroke="#FFCCAD" stroke-width="2"/>
<path d="M21.2466 23.6861C19.9508 23.7701 18.6966 23.67 17.4841 23.3857C17.3641 23.3572 17.3129 23.3981 17.3304 23.5084C17.4429 24.2246 17.8337 24.7432 18.5029 25.0642" stroke="#967A71" stroke-width="2"/>
<path d="M18.5028 25.0642C18.6545 25.197 18.8291 25.2862 19.0266 25.332" stroke="#FDAF96" stroke-width="2"/>
<path d="M19.0266 25.332L18.6265 25.8102C18.5982 25.8439 18.5707 25.8435 18.544 25.809L18.4566 25.6943C18.4506 25.6865 18.4423 25.6803 18.4326 25.6765C18.4229 25.6728 18.4123 25.6715 18.4019 25.6729C18.3914 25.6743 18.3817 25.6783 18.3736 25.6845C18.3656 25.6907 18.3597 25.6987 18.3565 25.7078L18.2228 26.0768C18.2128 26.106 18.1957 26.1315 18.1715 26.1533C17.9899 26.3168 17.9416 26.505 18.0266 26.718C18.0428 26.7594 18.0428 26.8045 18.0266 26.8459C18.0105 26.8873 17.9791 26.9225 17.9376 26.9456C17.8962 26.9688 17.8472 26.9784 17.7988 26.973C17.7504 26.9677 17.7055 26.9475 17.6715 26.916C17.669 26.913 17.599 26.9385 17.4615 26.9925" stroke="#FFCCAD" stroke-width="2"/>
<path d="M17.4616 26.9925C14.3828 26.4266 11.5953 24.8089 10.1366 22.2551" stroke="#F7AE6B" stroke-width="2"/>
<path d="M12.7878 15.4904C12.507 15.6906 12.3374 15.946 12.2791 16.2565C12.2729 16.2884 12.2765 16.3212 12.2895 16.3513C12.3025 16.3815 12.3243 16.4079 12.3528 16.4276C12.3812 16.4474 12.4151 16.4599 12.4508 16.4636C12.4864 16.4674 12.5226 16.4623 12.5553 16.4489C13.7616 15.9562 14.5078 15.2553 15.9716 15.586C16.2566 15.6505 16.4657 15.6685 16.5991 15.64C17.3053 15.4859 17.5866 14.5533 16.8916 14.2146C16.2916 13.921 15.2191 14.1224 14.5803 14.3137" stroke="#E6A580" stroke-width="2"/>
<path d="M23.5441 14.3756C23.3025 14.8841 23.4083 15.2535 23.8616 15.4837C24.1204 15.6154 24.4116 15.5614 24.6779 15.4792" stroke="#DA9676" stroke-width="2"/>
<path d="M24.6779 15.4792L27.0754 16.746" stroke="#FEAB90" stroke-width="2"/>
<path d="M27.0753 16.746C27.1453 17.1172 27.2478 17.2815 27.1453 17.6741" stroke="#FDB899" stroke-width="2"/>
<path d="M27.1453 17.6742C26.9353 17.4477 26.7553 17.291 26.6053 17.204C26.2141 16.979 26.0503 17.2197 25.6803 17.1691C25.2495 17.1091 25.0058 17.1946 24.9491 17.4256" stroke="#FFE3D3" stroke-width="2"/>
<path d="M24.9491 17.4255C23.5316 18.0904 23.4904 20.31 24.8416 21.0413C25.7341 21.5239 26.5979 20.9018 26.9429 20.1739" stroke="#8A6D60" stroke-width="2"/>
<path d="M26.9429 20.1738C27.0995 20.1063 27.2391 19.9702 27.3616 19.7654C27.3804 19.7339 27.3882 19.6979 27.3841 19.6619C27.3741 19.5652 27.415 19.4688 27.5066 19.3728" stroke="#FFE3D3" stroke-width="2"/>
<path d="M27.5066 19.3728C27.4891 19.8926 27.3491 20.2829 26.9391 20.6969C26.7374 20.9009 26.5533 21.1222 26.3866 21.3607" stroke="#FDB899" stroke-width="2"/>
<path d="M26.3866 21.3607C25.9632 21.4875 25.6028 21.6941 25.3053 21.9806C24.3878 22.8615 25.7028 23.5443 26.5241 23.5455C26.7966 23.5462 27.2245 23.4892 27.8078 23.3745" stroke="#FEAB90" stroke-width="2"/>
<path d="M27.8078 23.3745C27.4845 24.3263 26.8949 25.1089 26.039 25.7224C26.0355 25.725 26.033 25.7286 26.032 25.7326C26.031 25.7366 26.0316 25.7408 26.0336 25.7445C26.0357 25.7482 26.0391 25.7512 26.0432 25.7529C26.0474 25.7546 26.0521 25.7549 26.0565 25.7539C26.2174 25.7164 26.3515 25.6433 26.459 25.5345C26.4924 25.5008 26.5215 25.503 26.5465 25.5413C26.5765 25.5863 26.5615 25.6575 26.5015 25.755" stroke="#FDB899" stroke-width="2"/>
<path d="M26.5016 25.755C25.2283 26.4233 23.8566 26.8886 22.3866 27.1511" stroke="#EC9D5F" stroke-width="2"/>
<path d="M22.3866 27.1511C20.9953 27.2051 19.9816 27.3244 18.3353 27.1252" stroke="#FDB899" stroke-width="2"/>
<path d="M18.3353 27.1253L17.4615 26.9926" stroke="#F7A966" stroke-width="2"/>
<path d="M19.0266 25.332C20.1733 25.647 21.222 25.5687 22.1729 25.0969" stroke="#FEAB90" stroke-width="2"/>
<path d="M22.1728 25.0969C23.1337 24.7677 23.6628 24.2025 23.7603 23.4015C23.763 23.3801 23.7595 23.3585 23.7503 23.3386C23.7411 23.3187 23.7265 23.3013 23.7077 23.2879C23.689 23.2745 23.6668 23.2657 23.6432 23.2621C23.6196 23.2586 23.5954 23.2605 23.5728 23.2677C22.802 23.5099 22.0266 23.6494 21.2466 23.6862" stroke="#96766B" stroke-width="2"/>
<path d="M20.8304 22.4127C21.3454 21.9979 21.4625 21.4767 21.1816 20.8489C21.1091 20.6869 20.7354 20.2842 20.6304 20.643" stroke="#FDB899" stroke-width="2"/>
<path d="M32.5403 21.8412C31.8203 22.2387 31.1132 22.3298 30.4191 22.1146C30.3992 22.1084 30.3776 22.1089 30.358 22.1159C30.3385 22.1229 30.3225 22.136 30.3128 22.1528C29.4353 23.6911 28.1649 24.8918 26.5016 25.7551" stroke="#EA8E51" stroke-width="2"/>
<path d="M27.8078 23.3745C28.2278 23.1367 28.6116 22.8461 28.9591 22.5026C29.2453 22.2191 29.9778 20.8938 28.8716 21.0423C28.0616 21.1515 27.2403 21.2167 26.3866 21.3607" stroke="#FC9C82" stroke-width="2"/>
<path d="M27.5066 19.3729C27.535 18.7452 27.4146 18.1789 27.1454 17.6742" stroke="#FDD4C5" stroke-width="2"/>
<path d="M33.1816 28.8848C31.7549 29.688 30.2016 30.2951 28.5216 30.7061" stroke="#D4A780" stroke-width="2"/>
<path d="M28.5216 30.706C27.7828 29.0736 26.7191 27.925 24.7441 27.5133C24.0408 27.3663 23.4024 27.3123 22.8291 27.3513" stroke="#A19B52" stroke-width="2"/>
<path d="M22.8291 27.3514C22.4808 27.3521 22.3333 27.2854 22.3866 27.1511" stroke="#EA8E51" stroke-width="2"/>
<path d="M12.4041 30.9199L15.5866 31.722" stroke="#9DCFBB" stroke-width="2"/>
<path d="M15.5865 31.722C18.6778 32.3385 21.8615 32.3273 24.9753 31.7502" stroke="#DFB386" stroke-width="2"/>
<path d="M24.9753 31.7502C26.1137 31.4952 27.2958 31.1472 28.5216 30.7062" stroke="#9DCFBB" stroke-width="2"/>
<path d="M25.774 15.5614L27.8166 16.6763C27.831 16.6847 27.842 16.6971 27.8477 16.7118C27.8535 16.7264 27.8536 16.7423 27.8482 16.757C27.8427 16.7717 27.832 16.7844 27.8177 16.793C27.8033 16.8016 27.7862 16.8056 27.7691 16.8045L27.0753 16.746" stroke="#FC9C82" stroke-width="2"/>
<path d="M16.8904 27.7677C16.6395 27.6409 16.2791 27.6184 15.8091 27.7002C15.6854 27.7216 15.6754 27.7812 15.6666 27.8813" stroke="#B4C47B" stroke-width="2"/>
<path d="M15.6666 27.8813C15.5774 29.3581 15.5532 30.3492 15.5941 30.8547C15.6232 31.208 15.6207 31.4971 15.5866 31.7221" stroke="#ADA759" stroke-width="2"/>
<path d="M22.8291 27.3513L23.8604 27.4987C23.9029 27.5047 23.9249 27.5272 23.9266 27.5662C23.9374 27.8714 23.8533 28.1516 23.6741 28.4066C22.4116 30.2066 19.7554 30.4428 17.8991 29.2886C17.6633 29.1416 17.402 28.8404 17.1154 28.3852" stroke="#B3B68C" stroke-width="2"/>
<path d="M17.1154 28.3852L16.8904 27.7676" stroke="#FDB77A" stroke-width="2"/>
<path d="M16.8904 27.7675C16.912 27.658 16.9641 27.5665 17.0466 27.493" stroke="#B3B68C" stroke-width="2"/>
<path d="M20.0004 22.1404C20.3004 21.9709 20.5116 21.7766 20.6341 21.5576" stroke="#FDD4C5" stroke-width="2"/>
<path d="M22.1728 25.0969C21.9886 24.7511 21.6861 24.5404 21.2653 24.4646C20.5616 24.3375 18.8216 24.2711 18.5028 25.0643" stroke="#955954" stroke-width="2"/>
<path d="M26.9428 20.1739C27.3053 19.0069 27.0383 18.1186 26.1416 17.5088C25.8291 17.2966 25.4316 17.2688 24.9491 17.4256" stroke="#89898C" stroke-width="2"/>
<path d="M24.9753 31.7502C25.067 30.6844 25.147 29.6007 25.2153 28.4989C25.2286 28.2972 25.212 28.0879 25.1653 27.8711C25.1612 27.8522 25.1507 27.8349 25.1352 27.8218C25.1197 27.8087 25.1001 27.8003 25.079 27.798L24.204 27.6979C24.1432 27.6912 24.1049 27.7148 24.089 27.7688C23.634 29.3404 22.319 30.7062 20.4615 30.7928C18.924 30.8648 17.0065 30.0582 16.6128 28.5372" stroke="#ADA759" stroke-width="2"/>
<path d="M16.6129 28.5371C16.6012 28.4359 16.6079 28.3624 16.6329 28.3166C16.6587 28.2686 16.6783 28.2705 16.6916 28.3223C16.7658 28.599 16.8933 28.8533 17.0741 29.085C17.1008 29.1188 17.1333 29.1248 17.1716 29.103C17.2433 29.0625 17.257 29.001 17.2129 28.9185C17.0787 28.6695 17.0462 28.4918 17.1154 28.3853" stroke="#B4C47B" stroke-width="2"/>
<path d="M16.6129 28.5372L16.5541 28.2964C16.545 28.2567 16.5575 28.2237 16.5916 28.1974C16.8229 28.0231 16.6079 27.6856 16.3304 27.8217C16.2987 27.8374 16.2645 27.8434 16.2279 27.8397C16.0154 27.8149 15.8391 27.6822 15.6666 27.8813" stroke="#F7A846" stroke-width="2"/>
<path d="M19.4416 3.56428C19.0904 3.98616 19.3616 4.44178 19.8191 4.61616C19.8641 4.63266 19.9071 4.62928 19.9479 4.60603C20.6354 4.21678 21.2662 3.76266 21.8404 3.24366C21.8498 3.23534 21.8562 3.22468 21.8587 3.21306C21.8612 3.20144 21.8597 3.18937 21.8545 3.17839C21.8493 3.16741 21.8405 3.15802 21.8293 3.15142C21.8181 3.14481 21.805 3.14128 21.7916 3.14129C21.3333 3.15104 20.8583 3.14391 20.3666 3.11991C19.8854 3.09741 19.7066 3.24478 19.4416 3.56428Z" stroke="#FEBF5D" stroke-width="2"/>
<path d="M14.0078 21.0131C15.1253 21.5958 16.0791 20.7768 16.2828 19.8195C16.4836 18.8745 16.2103 18.1158 15.4628 17.5436" stroke="#897266" stroke-width="2"/>
<path d="M15.4628 17.5435C15.3715 16.9248 13.8678 17.3331 13.579 17.467C12.874 17.7933 12.6778 18.9408 12.779 19.5348C12.824 19.801 12.9511 20.0778 13.1603 20.365C13.2903 20.5428 13.9253 21.3471 14.0078 21.013" stroke="#FEE7D8" stroke-width="2"/>
<path d="M15.4629 17.5436C14.5529 17.1488 13.7591 17.5616 13.4116 18.357C12.9458 19.4243 13.1446 20.3096 14.0079 21.0131" stroke="#89898C" stroke-width="2"/>
<path d="M7.76664 20.9682C8.11997 21.2465 8.52539 21.3657 8.98289 21.326C9.03289 21.3215 9.07331 21.302 9.10414 21.2675C9.23581 21.119 9.27122 20.9131 9.21039 20.6498C8.98289 19.6553 8.83414 18.8285 8.15414 18.1332C8.1258 18.1032 8.09039 18.0856 8.04789 18.0803C7.59789 18.0185 7.27539 18.2637 7.10164 18.6406C6.69581 19.5256 6.91747 20.3015 7.76664 20.9682Z" stroke="#FDBD9F" stroke-width="2"/>
<path d="M11.2666 22.3991C11.6104 24.8055 16.3004 23.8583 15.0579 22.4093C14.2962 21.5205 13.2616 21.1984 11.9541 21.4429C11.4183 21.5426 11.1891 21.8614 11.2666 22.3991Z" stroke="#FDBD9F" stroke-width="2"/>
<path d="M31.2316 21.1966C33.0466 21.722 34.0091 19.0152 32.6979 18.0252C32.5104 17.8842 32.3562 17.8853 32.2354 18.0286C31.6929 18.6698 31.3195 19.4378 31.1154 20.3326C31.0716 20.5238 31.0966 20.7252 31.0529 20.9232C31.0398 20.9803 31.0508 21.0397 31.0838 21.0902C31.1167 21.1407 31.1694 21.1786 31.2316 21.1966Z" stroke="#FC9C82" stroke-width="2"/>
<path d="M25.3886 19.6682C25.4388 19.6706 25.4891 19.6627 25.5366 19.6451C25.5841 19.6275 25.6279 19.6004 25.6655 19.5655C25.7031 19.5305 25.7337 19.4884 25.7557 19.4414C25.7777 19.3945 25.7906 19.3437 25.7936 19.2919C25.7997 19.1873 25.7653 19.0851 25.6979 19.0078C25.6306 18.9305 25.5359 18.8843 25.4346 18.8796C25.3844 18.8772 25.3341 18.885 25.2866 18.9027C25.2391 18.9203 25.1953 18.9474 25.1577 18.9823C25.1201 19.0173 25.0895 19.0594 25.0675 19.1063C25.0455 19.1533 25.0326 19.2041 25.0296 19.2559C25.0235 19.3605 25.0579 19.4627 25.1253 19.54C25.1926 19.6173 25.2873 19.6635 25.3886 19.6682Z" stroke="#89898C" stroke-width="2"/>
<path d="M14.9789 19.6499C15.0755 19.622 15.1548 19.558 15.1995 19.472C15.2441 19.3859 15.2504 19.2849 15.217 19.1912C15.1836 19.0974 15.1131 19.0186 15.0212 18.9721C14.9292 18.9255 14.8233 18.915 14.7267 18.9429C14.6301 18.9709 14.5508 19.0349 14.5061 19.1209C14.4615 19.2069 14.4552 19.3079 14.4886 19.4017C14.5221 19.4954 14.5925 19.5742 14.6844 19.6208C14.7764 19.6673 14.8823 19.6778 14.9789 19.6499Z" stroke="#89898C" stroke-width="2"/>
<path d="M27.6778 4.86943C27.6412 4.87243 27.6166 4.88293 27.6041 4.90093C27.6001 4.90734 27.5977 4.91446 27.5971 4.92176C27.5965 4.92907 27.5977 4.93638 27.6005 4.94316C27.6034 4.94995 27.6079 4.95604 27.6137 4.96099C27.6195 4.96595 27.6265 4.96964 27.6341 4.9718C27.7632 5.0093 27.8324 5.08243 27.8416 5.19118C27.8435 5.21069 27.8498 5.22956 27.8602 5.2466C27.8705 5.26364 27.8846 5.27848 27.9016 5.29018C28.8341 5.93593 29.5216 7.09468 29.9191 8.0678C30.8378 10.3189 30.0453 12.9627 27.5591 14.0191C26.9116 14.2947 26.4091 14.2182 25.7578 14.0134C24.4116 13.5893 23.0578 12.7309 22.0053 11.8748C21.8537 11.7518 21.6528 11.6112 21.4028 11.4529C21.2087 11.3299 21.0087 11.1863 20.8028 11.0221C19.9195 10.1003 19.2653 9.12868 18.8403 8.10718C18.652 7.65268 18.4724 7.3178 18.3016 7.10255L18.2416 6.1103C18.2422 6.09717 18.2371 6.08435 18.2272 6.07464C18.2174 6.06494 18.2037 6.05915 18.1891 6.05855C18.1745 6.05796 18.1602 6.0626 18.1495 6.07146C18.1387 6.08032 18.1322 6.09268 18.1316 6.1058C17.7099 8.45405 16.702 10.5661 15.1078 12.4418C14.3391 13.3463 13.3616 14.1597 12.3766 14.9179C12.366 14.926 12.3536 14.932 12.3403 14.9354C12.327 14.9389 12.313 14.9397 12.2993 14.9379C12.2855 14.9361 12.2724 14.9317 12.2607 14.9249C12.2491 14.9182 12.2391 14.9093 12.2316 14.8988C11.3178 13.6197 9.72658 15.0372 8.90658 15.6649C8.25908 16.1622 7.65408 15.4287 7.47408 14.9371C7.21741 14.2373 7.06867 13.4971 7.02783 12.7163C7.08033 12.6736 7.10783 12.6166 7.11033 12.5453C7.1195 12.2888 7.14741 12.0844 7.19408 11.9322C7.86658 11.4949 8.46408 11.0382 8.98658 10.5619C9.00064 10.5491 9.01832 10.54 9.03772 10.5355C9.05712 10.5311 9.07749 10.5315 9.09666 10.5367C9.11582 10.5419 9.13304 10.5517 9.14646 10.5651C9.15988 10.5785 9.169 10.5949 9.17283 10.6126C9.40908 11.6993 10.1241 12.7433 11.5153 12.2719C12.3691 11.9817 13.0341 11.2414 13.4741 10.5124C13.4941 10.4794 13.5228 10.4543 13.5603 10.4371C13.8003 10.3246 13.8703 10.2008 13.9178 9.93868C13.947 9.77818 14.0162 9.60193 14.1253 9.40993C14.6678 8.44768 15.1474 7.3463 15.5641 6.1058C15.8503 5.25305 15.5916 4.61068 14.4603 4.92793C12.9037 5.36443 11.5545 6.10355 10.4128 7.1453C10.3153 7.2353 9.31033 8.42555 9.18158 7.96993C11.2899 5.38693 14.0287 3.79243 17.3978 3.18643C20.9291 2.5508 24.6616 3.06043 27.6778 4.86943ZM19.4416 3.56443C19.0903 3.9863 19.3616 4.44193 19.8191 4.6163C19.8641 4.6328 19.907 4.62943 19.9478 4.60618C20.6353 4.21693 21.2662 3.7628 21.8403 3.2438C21.8497 3.23548 21.8561 3.22483 21.8586 3.2132C21.8611 3.20158 21.8597 3.18951 21.8544 3.17853C21.8492 3.16756 21.8404 3.15817 21.8292 3.15156C21.818 3.14495 21.8049 3.14143 21.7916 3.14143C21.3332 3.15118 20.8582 3.14405 20.3666 3.12005C19.8853 3.09755 19.7066 3.24493 19.4416 3.56443Z" fill="#FEB852"/>
<path d="M19.8191 4.61616C19.3616 4.44178 19.0904 3.98616 19.4416 3.56428C19.7066 3.24478 19.8854 3.09741 20.3666 3.11991C20.8583 3.14391 21.3333 3.15104 21.7916 3.14129C21.805 3.14128 21.8181 3.14481 21.8293 3.15142C21.8405 3.15802 21.8493 3.16741 21.8545 3.17839C21.8597 3.18937 21.8612 3.20144 21.8587 3.21306C21.8562 3.22468 21.8498 3.23534 21.8404 3.24366C21.2662 3.76266 20.6354 4.21678 19.9479 4.60603C19.9071 4.62928 19.8641 4.63266 19.8191 4.61616Z" fill="#FEC568"/>
<path d="M7.19409 11.9321C7.52743 10.4501 8.18993 9.12938 9.1816 7.96988C9.31035 8.4255 10.3153 7.23526 10.4128 7.14526C11.5545 6.10351 12.9037 5.36438 14.4603 4.92788C15.5916 4.61063 15.8503 5.25301 15.5641 6.10576C15.1474 7.34626 14.6678 8.44763 14.1253 9.40988C14.0162 9.60188 13.947 9.77813 13.9178 9.93863C13.8703 10.2008 13.8003 10.3245 13.5603 10.437C13.5228 10.4543 13.4941 10.4794 13.4741 10.5124C13.0341 11.2414 12.3691 11.9816 11.5153 12.2719C10.1241 12.7433 9.40909 11.6993 9.17284 10.6125C9.16902 10.5948 9.1599 10.5784 9.14648 10.565C9.13305 10.5517 9.11583 10.5419 9.09667 10.5367C9.07751 10.5315 9.05713 10.531 9.03774 10.5355C9.01834 10.5399 9.00066 10.5491 8.9866 10.5619C8.4641 11.0381 7.86659 11.4949 7.19409 11.9321Z" fill="#FEC568"/>
<path d="M27.6779 4.86938C29.6062 5.98313 31.0924 7.40289 32.1366 9.12864C32.8174 10.2544 33.2479 11.4668 33.4279 12.7658C33.4604 13.4385 33.3866 14.0438 33.2066 14.5815C33.1291 14.8125 32.9979 15.0026 32.8129 15.1519C31.2316 16.4276 28.8929 15.3038 27.2404 14.5421C26.9754 14.4199 26.7374 14.4776 26.5266 14.7154C25.7608 14.2736 24.9474 14.0539 24.0866 14.0561C22.8324 13.2326 21.7379 12.2213 20.8029 11.022C21.0087 11.1863 21.2087 11.3299 21.4029 11.4529C21.6529 11.6111 21.8537 11.7518 22.0054 11.8748C23.0579 12.7309 24.4116 13.5893 25.7579 14.0134C26.4091 14.2181 26.9116 14.2946 27.5591 14.019C30.0454 12.9626 30.8379 10.3189 29.9191 8.06776C29.5216 7.09464 28.8341 5.93589 27.9016 5.29014C27.8846 5.27844 27.8705 5.2636 27.8602 5.24656C27.8499 5.22952 27.8435 5.21064 27.8416 5.19114C27.8324 5.08239 27.7633 5.00926 27.6341 4.97176C27.6265 4.9696 27.6195 4.9659 27.6137 4.96095C27.6079 4.956 27.6035 4.94991 27.6006 4.94312C27.5977 4.93634 27.5965 4.92903 27.5971 4.92172C27.5978 4.91442 27.6001 4.9073 27.6041 4.90088C27.6166 4.88288 27.6412 4.87238 27.6779 4.86938Z" fill="#F29A32"/>
<path d="M18.3016 7.10252C17.6116 9.99152 15.8129 12.1526 13.6979 14.3138C13.3804 14.6378 13.0704 15.0709 12.7066 15.4264C11.7454 16.1149 10.6116 16.6369 9.48035 17.052C9.41007 17.0779 9.34996 17.1222 9.30766 17.1791C9.26537 17.236 9.2428 17.303 9.24285 17.3715L9.2491 18.9398C9.2491 19.0763 9.21368 19.0841 9.14285 18.9634C8.8091 18.3986 8.3241 16.9283 7.30785 17.4795C6.53035 17.9014 6.1891 18.6237 6.1941 19.4449C6.2041 21.183 8.00535 22.7389 10.0066 22.1516C10.0483 22.1397 10.0824 22.149 10.1091 22.1798C10.1258 22.1985 10.1349 22.2236 10.1366 22.2551C9.7316 22.3778 10.3116 23.2114 10.4391 23.3363C10.4563 23.3528 10.4679 23.3734 10.4725 23.3956C10.4772 23.4178 10.4748 23.4408 10.4655 23.462C10.4562 23.4831 10.4405 23.5015 10.4202 23.5151C10.3998 23.5287 10.3756 23.5369 10.3503 23.5388C9.0966 23.6299 8.1091 24.7706 8.6991 25.8698C8.8241 26.1038 9.0866 26.286 9.3016 26.4514C9.41493 26.5399 9.39785 26.5961 9.25035 26.6201C8.3991 26.7574 8.05535 27.0578 7.5591 27.6686C7.44327 27.8126 7.28993 27.9495 7.0991 28.0793C6.7791 28.2983 6.50244 28.5525 6.2691 28.842C5.0366 27.9758 3.8691 26.817 3.5516 25.4344C3.46285 25.0463 3.47785 24.5288 3.6816 24.18C3.9316 23.757 4.73535 23.2699 5.08785 23.9044C5.10618 23.9381 5.09785 23.9651 5.06285 23.9854L4.58785 24.2576C4.55407 24.2772 4.52954 24.3077 4.5191 24.3431C4.2016 25.4085 5.1491 26.0745 6.25535 25.6617C6.33047 25.6336 6.39088 25.5808 6.42431 25.514C6.45775 25.4471 6.46169 25.3712 6.43535 25.3016C6.02201 24.2179 6.35327 23.3951 7.4291 22.8334C7.46326 22.8154 7.46494 22.7951 7.4341 22.7726C4.22785 20.382 3.70785 16.2848 6.3366 13.3384C6.55243 13.0969 6.78285 12.8895 7.02785 12.7163C7.06869 13.497 7.21743 14.2373 7.4741 14.937C7.6541 15.4286 8.2591 16.1621 8.9066 15.6649C9.7266 15.0371 11.3178 13.6196 12.2316 14.8988C12.2391 14.9092 12.2491 14.9182 12.2608 14.9249C12.2724 14.9316 12.2856 14.9361 12.2993 14.9379C12.313 14.9397 12.327 14.9388 12.3403 14.9354C12.3537 14.932 12.366 14.926 12.3766 14.9179C13.3616 14.1596 14.3391 13.3463 15.1078 12.4418C16.702 10.566 17.7099 8.45402 18.1316 6.10577C18.1323 6.09265 18.1387 6.08029 18.1495 6.07143C18.1603 6.06257 18.1745 6.05793 18.1891 6.05852C18.2037 6.05912 18.2174 6.06491 18.2273 6.07461C18.2371 6.08432 18.2423 6.09714 18.2416 6.11027L18.3016 7.10252Z" fill="#F29A32"/>
<path d="M18.3015 7.10242C18.4724 7.31767 18.652 7.65254 18.8403 8.10704C19.2653 9.12854 19.9195 10.1002 20.8028 11.0219C21.7378 12.2212 22.8324 13.2325 24.0865 14.056L23.544 14.3755C22.1707 13.5385 20.994 12.5129 20.014 11.2987C19.4774 10.5922 19.0182 9.86429 18.6365 9.11504C18.6065 9.05654 18.5682 9.05204 18.5215 9.10154C18.4457 9.18254 18.3628 9.30067 18.2728 9.45592C17.3445 11.0602 16.1107 12.6168 14.5715 14.1258C14.5015 14.1944 14.5078 14.2529 14.5803 14.3137C13.9095 14.5919 13.312 14.9842 12.7878 15.4904C12.7728 15.4229 12.7457 15.4015 12.7065 15.4263C13.0703 15.0708 13.3803 14.6377 13.6978 14.3137C15.8128 12.1525 17.6115 9.99142 18.3015 7.10242Z" fill="#FBA98B"/>
<path d="M20.0141 11.2988C19.7975 11.688 19.7841 11.9652 19.9741 12.1302C19.9983 12.1512 19.9996 12.1733 19.9779 12.1965L19.7629 12.4283C19.7329 12.4613 19.7179 12.4992 19.7179 12.5419L19.7292 13.8368C19.7292 13.8814 19.738 13.9256 19.7554 13.9673C19.8404 14.1788 19.7404 14.4139 19.7517 14.5849C19.7767 14.9329 19.7883 15.2805 19.7866 15.6278C19.7858 15.756 19.7496 15.9342 19.6779 16.1622C19.5416 16.5998 19.7104 16.98 19.6279 17.4019C19.4792 18.1613 19.5204 18.8599 19.7129 19.608C19.7721 19.8368 19.7862 20.0712 19.7554 20.3112C19.7531 20.3277 19.7547 20.3445 19.7599 20.3604C19.7651 20.3764 19.774 20.3912 19.7858 20.4039C19.7977 20.4166 19.8124 20.4269 19.8288 20.4342C19.8453 20.4414 19.8633 20.4455 19.8816 20.4462C20.2033 20.4574 20.4529 20.523 20.6304 20.643C20.8012 20.961 20.8025 21.2659 20.6342 21.5577C20.5392 21.5089 20.4133 21.5618 20.2566 21.7163C20.2445 21.7283 20.229 21.7373 20.2119 21.7423C20.1947 21.7474 20.1764 21.7484 20.1587 21.7453C20.1409 21.7421 20.1244 21.7349 20.1107 21.7243C20.097 21.7137 20.0866 21.7001 20.0804 21.6848C20.0362 21.5738 19.9491 21.51 19.8191 21.4935C19.8023 21.4918 19.7854 21.4959 19.7719 21.5049C19.7584 21.5139 19.7494 21.5271 19.7467 21.5419C19.6925 21.8239 19.7771 22.0234 20.0004 22.1404C19.9346 22.1577 19.8958 22.1903 19.8842 22.2383C19.8771 22.2672 19.8768 22.2972 19.8832 22.3262C19.8896 22.3552 19.9026 22.3828 19.9214 22.407C19.9402 22.4312 19.9644 22.4516 19.9924 22.4669C20.0204 22.4822 20.0517 22.4921 20.0841 22.4959C20.335 22.5252 20.5837 22.4974 20.8304 22.4127C21.0779 22.5533 20.7716 22.8705 20.8754 23.118C20.8912 23.1548 20.9133 23.1878 20.9417 23.217C21.0275 23.3055 21.0537 23.4057 21.0204 23.5174C21.0096 23.5527 21.0242 23.5714 21.0642 23.5737C21.1608 23.5797 21.2217 23.6172 21.2467 23.6862C19.9508 23.7702 18.6966 23.67 17.4841 23.3858C17.3641 23.3573 17.3129 23.3982 17.3304 23.5084C17.4429 24.2247 17.8337 24.7433 18.5029 25.0643C18.6546 25.197 18.8292 25.2863 19.0267 25.332L18.6267 25.8102C18.5983 25.8439 18.5708 25.8435 18.5441 25.809L18.4567 25.6943C18.4507 25.6865 18.4424 25.6803 18.4327 25.6765C18.423 25.6728 18.4124 25.6715 18.402 25.6729C18.3915 25.6743 18.3818 25.6783 18.3738 25.6845C18.3657 25.6907 18.3598 25.6987 18.3566 25.7078L18.2229 26.0768C18.2129 26.106 18.1958 26.1315 18.1716 26.1533C17.99 26.3168 17.9417 26.505 18.0267 26.718C18.0429 26.7594 18.0429 26.8045 18.0268 26.8459C18.0106 26.8873 17.9792 26.9225 17.9377 26.9456C17.8963 26.9688 17.8473 26.9784 17.7989 26.973C17.7505 26.9677 17.7056 26.9475 17.6716 26.916C17.6691 26.913 17.5991 26.9385 17.4616 26.9925C14.3829 26.4267 11.5954 24.8089 10.1367 22.2552C10.135 22.2237 10.1258 22.1985 10.1091 22.1798C10.0825 22.149 10.0483 22.1397 10.0066 22.1517C8.0054 22.7389 6.20415 21.183 6.19415 19.4449C6.18915 18.6237 6.5304 17.9014 7.3079 17.4795C8.32415 16.9283 8.80915 18.3987 9.1429 18.9634C9.21373 19.0842 9.24915 19.0763 9.24915 18.9398L9.2429 17.3715C9.24285 17.303 9.26541 17.236 9.30771 17.1791C9.35001 17.1222 9.41012 17.078 9.4804 17.052C10.6117 16.6369 11.7454 16.1149 12.7067 15.4264C12.7458 15.4017 12.7729 15.423 12.7879 15.4905C12.5071 15.6908 12.3375 15.9462 12.2791 16.2567C12.273 16.2885 12.2766 16.3213 12.2896 16.3514C12.3025 16.3816 12.3244 16.408 12.3529 16.4278C12.3813 16.4476 12.4151 16.46 12.4508 16.4638C12.4865 16.4675 12.5227 16.4624 12.5554 16.449C13.7616 15.9563 14.5079 15.2554 15.9717 15.5862C16.2567 15.6507 16.4658 15.6687 16.5991 15.6402C17.3054 15.486 17.5866 14.5534 16.8916 14.2148C16.2916 13.9212 15.2192 14.1225 14.5804 14.3138C14.5079 14.253 14.5016 14.1945 14.5716 14.1259C16.1108 12.6169 17.3446 11.0603 18.2729 9.45603C18.3629 9.30078 18.4458 9.18266 18.5216 9.10166C18.5683 9.05216 18.6067 9.05666 18.6367 9.11516C19.0183 9.86441 19.4775 10.5923 20.0141 11.2988ZM14.0079 21.0132C15.1254 21.5959 16.0792 20.7769 16.2829 19.8195C16.4837 18.8745 16.2104 18.1159 15.4629 17.5437C15.3717 16.9249 13.8679 17.3333 13.5791 17.4672C12.8741 17.7934 12.6779 18.9409 12.7791 19.5349C12.8241 19.8012 12.9512 20.0779 13.1604 20.3652C13.2904 20.5429 13.9254 21.3473 14.0079 21.0132ZM7.76665 20.9682C8.11998 21.2464 8.5254 21.3657 8.9829 21.3259C9.0329 21.3214 9.07332 21.3019 9.10415 21.2674C9.23582 21.1189 9.27123 20.913 9.2104 20.6498C8.9829 19.6553 8.83415 18.8284 8.15415 18.1332C8.12581 18.1032 8.0904 18.0855 8.0479 18.0803C7.5979 18.0184 7.2754 18.2637 7.10165 18.6405C6.69581 19.5255 6.91748 20.3014 7.76665 20.9682ZM11.2666 22.3992C11.6104 24.8055 16.3004 23.8583 15.0579 22.4093C14.2962 21.5205 13.2616 21.1984 11.9541 21.4429C11.4183 21.5427 11.1891 21.8614 11.2666 22.3992Z" fill="#FED0B2"/>
<path d="M20.014 11.2988C20.994 12.5131 22.1707 13.5387 23.544 14.3757C23.3024 14.8842 23.4082 15.2536 23.8615 15.4838C24.1203 15.6155 24.4115 15.5615 24.6778 15.4793L27.0753 16.7461C27.1453 17.1173 27.2478 17.2816 27.1453 17.6742C26.9353 17.4477 26.7553 17.291 26.6053 17.204C26.2141 16.979 26.0503 17.2197 25.6803 17.1691C25.2495 17.1091 25.0057 17.1946 24.9491 17.4256C23.5316 18.0905 23.4903 20.3101 24.8415 21.0413C25.734 21.524 26.5978 20.9018 26.9428 20.174C27.0995 20.1065 27.239 19.9703 27.3615 19.7656C27.3803 19.7341 27.3881 19.698 27.384 19.6621C27.374 19.5653 27.4149 19.469 27.5065 19.373C27.489 19.8927 27.349 20.2831 26.939 20.6971C26.7374 20.9011 26.5532 21.1223 26.3866 21.3608C25.9632 21.4876 25.6028 21.6942 25.3053 21.9807C24.3878 22.8616 25.7028 23.5445 26.524 23.5456C26.7965 23.5463 27.2245 23.4893 27.8078 23.3746C27.4845 24.3263 26.8949 25.109 26.039 25.7225C26.0355 25.725 26.033 25.7286 26.032 25.7327C26.031 25.7367 26.0316 25.7409 26.0336 25.7446C26.0357 25.7483 26.0391 25.7512 26.0432 25.7529C26.0474 25.7546 26.0521 25.755 26.0565 25.754C26.2174 25.7165 26.3515 25.6433 26.459 25.5346C26.4924 25.5008 26.5215 25.5031 26.5465 25.5413C26.5765 25.5863 26.5615 25.6576 26.5015 25.7551C25.2282 26.4233 23.8566 26.8887 22.3866 27.1512C20.9953 27.2052 19.9815 27.3245 18.3353 27.1253L17.4615 26.9926C17.599 26.9386 17.669 26.9131 17.6715 26.9161C17.7055 26.9476 17.7504 26.9677 17.7988 26.9731C17.8472 26.9785 17.8962 26.9688 17.9376 26.9457C17.9791 26.9226 18.0105 26.8874 18.0266 26.846C18.0428 26.8046 18.0428 26.7595 18.0266 26.7181C17.9416 26.5051 17.9899 26.3168 18.1715 26.1533C18.1957 26.1316 18.2128 26.1061 18.2228 26.0768L18.3565 25.7078C18.3597 25.6988 18.3656 25.6907 18.3736 25.6845C18.3817 25.6784 18.3914 25.6744 18.4019 25.673C18.4123 25.6715 18.4229 25.6728 18.4326 25.6766C18.4423 25.6804 18.4506 25.6865 18.4566 25.6943L18.544 25.8091C18.5707 25.8436 18.5982 25.844 18.6265 25.8102L19.0266 25.3321C20.1732 25.6471 21.222 25.5687 22.1728 25.097C23.1336 24.7677 23.6628 24.2026 23.7603 23.4016C23.7629 23.3802 23.7595 23.3585 23.7503 23.3387C23.7411 23.3188 23.7264 23.3013 23.7077 23.288C23.689 23.2746 23.6667 23.2657 23.6432 23.2622C23.6196 23.2586 23.5954 23.2605 23.5728 23.2677C22.802 23.51 22.0266 23.6495 21.2466 23.6862C21.2216 23.6172 21.1607 23.5797 21.064 23.5737C21.024 23.5715 21.0095 23.5527 21.0203 23.5175C21.0536 23.4057 21.0274 23.3056 20.9416 23.2171C20.9132 23.1878 20.8911 23.1548 20.8753 23.1181C20.7715 22.8706 21.0778 22.5533 20.8303 22.4127C21.3453 21.998 21.4624 21.4767 21.1815 20.849C21.109 20.687 20.7353 20.2842 20.6303 20.6431C20.4528 20.5231 20.2032 20.4575 19.8815 20.4462C19.8632 20.4456 19.8452 20.4415 19.8287 20.4342C19.8123 20.4269 19.7976 20.4166 19.7857 20.4039C19.7739 20.3912 19.765 20.3765 19.7598 20.3605C19.7546 20.3445 19.753 20.3277 19.7553 20.3112C19.7861 20.0712 19.772 19.8368 19.7128 19.6081C19.5203 18.86 19.479 18.1613 19.6278 17.402C19.7103 16.9801 19.5415 16.5998 19.6778 16.1622C19.7495 15.9342 19.7857 15.7561 19.7865 15.6278C19.7882 15.2806 19.7765 14.933 19.7515 14.585C19.7403 14.414 19.8403 14.1788 19.7553 13.9673C19.7379 13.9257 19.7291 13.8815 19.729 13.8368L19.7178 12.542C19.7178 12.4992 19.7328 12.4613 19.7628 12.4283L19.9778 12.1966C19.9995 12.1733 19.9982 12.1512 19.974 12.1302C19.784 11.9652 19.7974 11.6881 20.014 11.2988Z" fill="#FFC7A7"/>
<path d="M33.4279 12.7657C36.7541 15.6176 36.3554 20.1007 32.9041 22.6995C32.9003 22.7024 32.8972 22.7061 32.8951 22.7102C32.8931 22.7144 32.8921 22.7189 32.8922 22.7234C32.8923 22.7279 32.8936 22.7324 32.8958 22.7364C32.8981 22.7405 32.9014 22.744 32.9054 22.7467C33.6916 23.3002 34.1066 24.2475 33.6166 25.0935C33.5054 25.2859 33.5116 25.4411 33.7541 25.539C34.2599 25.7437 34.7216 25.7059 35.1391 25.4254C35.6754 25.0665 35.7491 24.1935 35.0341 23.9336C35.0164 23.9274 35.0005 23.9177 34.9873 23.9054C34.9741 23.8931 34.964 23.8784 34.9576 23.8622C34.9512 23.846 34.9487 23.8288 34.9503 23.8116C34.9518 23.7944 34.9574 23.7777 34.9666 23.7626C35.1558 23.4514 35.4429 23.3745 35.8279 23.532C36.2991 23.7255 36.5366 24.1744 36.5591 24.6446C36.5766 25.0121 36.5124 25.3624 36.3666 25.6954C35.7816 27.042 34.4866 28.086 33.1816 28.8847L33.1054 28.8645C33.0504 28.8502 33.0329 28.8191 33.0529 28.7711L33.1041 28.6507C33.1174 28.6185 33.1195 28.5859 33.1104 28.5529C32.9554 27.9724 32.6074 27.5152 32.0666 27.1815C32.0299 27.1597 32.0124 27.129 32.0141 27.0892C32.0549 26.1247 31.5633 25.5551 30.5391 25.3804C30.5239 25.3776 30.5098 25.3709 30.4987 25.3612C30.4875 25.3515 30.4797 25.339 30.4762 25.3254C30.4726 25.3118 30.4735 25.2976 30.4786 25.2844C30.4838 25.2712 30.4931 25.2596 30.5054 25.251C30.7795 25.0672 31.0808 24.9356 31.4091 24.8561C31.4315 24.8507 31.452 24.8402 31.4685 24.8255C31.485 24.8109 31.497 24.7926 31.5033 24.7726C31.5096 24.7525 31.51 24.7313 31.5044 24.711C31.4989 24.6907 31.4876 24.6721 31.4716 24.657L30.9841 24.1946C30.9591 24.1714 30.9524 24.144 30.9641 24.1125C31.1008 23.748 31.2845 23.4352 31.5154 23.1742C31.927 22.7092 32.2687 22.2649 32.5404 21.8411C32.9754 21.5314 33.2895 21.2452 33.4829 20.9827C34.2345 19.962 34.2629 18.93 33.5679 17.8867C33.3104 17.5009 32.2379 16.9665 31.9329 17.5627C31.7354 17.9482 31.5362 18.3319 31.3354 18.7136C31.2912 18.7976 31.2183 18.8332 31.1166 18.8205C30.9254 18.7957 30.9891 17.5099 30.9841 17.3006C30.983 17.2411 30.9617 17.1834 30.923 17.1351C30.8844 17.0868 30.8302 17.0504 30.7679 17.0306L28.1366 16.2094C27.7241 15.5884 27.1874 15.0904 26.5266 14.7154C26.7374 14.4776 26.9754 14.4199 27.2404 14.5421C28.8929 15.3037 31.2316 16.4276 32.8129 15.1519C32.9979 15.0026 33.1291 14.8125 33.2066 14.5815C33.3866 14.0437 33.4604 13.4385 33.4279 12.7657Z" fill="#EF8B24"/>
<path d="M26.5266 14.7154C27.1875 15.0904 27.7241 15.5884 28.1366 16.2094L28.1566 16.5469C28.1578 16.5648 28.1534 16.5826 28.1438 16.5983C28.1343 16.614 28.1201 16.627 28.1028 16.6358C28.0854 16.6446 28.0657 16.6488 28.0459 16.648C28.026 16.6472 28.0068 16.6414 27.9904 16.6313C27.3046 16.203 26.5658 15.8464 25.7741 15.5614C25.42 15.4009 25.0546 15.3735 24.6779 15.4793C24.4116 15.5614 24.1204 15.6154 23.8616 15.4838C23.4083 15.2535 23.3025 14.8842 23.5441 14.3757L24.0866 14.0562C24.9475 14.0539 25.7608 14.2737 26.5266 14.7154Z" fill="#B56444"/>
<path d="M12.7878 15.4904C13.312 14.9841 13.9095 14.5919 14.5803 14.3137C15.2191 14.1224 16.2916 13.921 16.8916 14.2146C17.5866 14.5533 17.3053 15.4859 16.5991 15.64C16.4657 15.6685 16.2566 15.6505 15.9716 15.586C14.5078 15.2553 13.7616 15.9562 12.5553 16.4489C12.5226 16.4623 12.4864 16.4674 12.4508 16.4636C12.4151 16.4599 12.3812 16.4474 12.3528 16.4276C12.3243 16.4079 12.3025 16.3815 12.2895 16.3513C12.2765 16.3212 12.2729 16.2884 12.2791 16.2565C12.3374 15.946 12.507 15.6906 12.7878 15.4904Z" fill="#CD7A4E"/>
<path d="M25.7741 15.5614L27.8166 16.6763C27.8311 16.6846 27.8421 16.6971 27.8478 16.7118C27.8535 16.7264 27.8537 16.7423 27.8482 16.757C27.8428 16.7717 27.8321 16.7844 27.8177 16.793C27.8034 16.8016 27.7863 16.8056 27.7691 16.8045L27.0754 16.746L24.6779 15.4793C25.0545 15.3735 25.4199 15.4009 25.7741 15.5614Z" fill="#FC8E79"/>
<path d="M25.774 15.5614C26.5657 15.8464 27.3045 16.203 27.9903 16.6313C28.0067 16.6414 28.0259 16.6472 28.0458 16.648C28.0656 16.6488 28.0853 16.6446 28.1027 16.6358C28.12 16.627 28.1342 16.614 28.1437 16.5983C28.1533 16.5826 28.1577 16.5648 28.1565 16.5469L28.1366 16.2094L30.7678 17.0307C30.8302 17.0504 30.8843 17.0869 30.923 17.1351C30.9616 17.1834 30.9829 17.2412 30.984 17.3007C30.989 17.5099 30.9253 18.7958 31.1165 18.8205C31.2182 18.8333 31.2911 18.7977 31.3353 18.7137C31.5361 18.3319 31.7353 17.9483 31.9328 17.5628C32.2378 16.9665 33.3103 17.5009 33.5678 17.8868C34.2628 18.93 34.2345 19.962 33.4828 20.9828C33.2895 21.2453 32.9753 21.5314 32.5403 21.8412C31.8203 22.2387 31.1132 22.3298 30.419 22.1145C30.3992 22.1084 30.3775 22.1088 30.358 22.1159C30.3385 22.1229 30.3225 22.136 30.3128 22.1528C29.4353 23.691 28.1649 24.8918 26.5015 25.755C26.5615 25.6575 26.5765 25.5863 26.5465 25.5413C26.5215 25.503 26.4924 25.5008 26.459 25.5345C26.3515 25.6433 26.2174 25.7164 26.0565 25.7539C26.0521 25.7549 26.0474 25.7546 26.0432 25.7529C26.0391 25.7512 26.0357 25.7482 26.0336 25.7445C26.0316 25.7408 26.031 25.7366 26.032 25.7326C26.033 25.7286 26.0355 25.725 26.039 25.7224C26.8949 25.1089 27.4845 24.3263 27.8078 23.3745C28.2278 23.1368 28.6115 22.8462 28.959 22.5027C29.2453 22.2192 29.9778 20.8939 28.8716 21.0424C28.0616 21.1515 27.2403 21.2168 26.3866 21.3608C26.5532 21.1223 26.7374 20.901 26.939 20.697C27.349 20.283 27.489 19.8927 27.5065 19.3729C27.5349 18.7452 27.4145 18.1789 27.1453 17.6742C27.2478 17.2815 27.1453 17.1173 27.0753 16.746L27.7691 16.8045C27.7862 16.8056 27.8033 16.8016 27.8177 16.793C27.832 16.7844 27.8427 16.7717 27.8482 16.757C27.8536 16.7423 27.8535 16.7264 27.8477 16.7118C27.842 16.6971 27.831 16.6847 27.8166 16.6763L25.774 15.5614ZM31.2315 21.1965C33.0465 21.7219 34.009 19.0152 32.6978 18.0252C32.5103 17.8842 32.3561 17.8853 32.2353 18.0285C31.6928 18.6698 31.3195 19.4378 31.1153 20.3325C31.0715 20.5238 31.0965 20.7251 31.0528 20.9231C31.0397 20.9802 31.0507 21.0397 31.0837 21.0902C31.1167 21.1406 31.1693 21.1785 31.2315 21.1965Z" fill="#FBA98B"/>
<path d="M27.1453 17.6742C27.4145 18.179 27.5349 18.7452 27.5066 19.373C27.4149 19.469 27.3741 19.5654 27.3841 19.6621C27.3882 19.6981 27.3803 19.7341 27.3616 19.7656C27.2391 19.9704 27.0995 20.1065 26.9428 20.174C27.3053 19.007 27.0383 18.1186 26.1416 17.5089C25.8291 17.2966 25.4316 17.2689 24.9491 17.4256C25.0058 17.1946 25.2495 17.1091 25.6803 17.1691C26.0503 17.2197 26.2141 16.979 26.6053 17.204C26.7553 17.291 26.9353 17.4477 27.1453 17.6742Z" fill="#FEFEFE"/>
<path d="M15.4628 17.5435C14.5528 17.1486 13.759 17.5615 13.4115 18.3569C12.9457 19.4241 13.1445 20.3095 14.0078 21.013C13.9253 21.3471 13.2903 20.5428 13.1603 20.365C12.9511 20.0778 12.824 19.801 12.779 19.5348C12.6778 18.9408 12.874 17.7933 13.579 17.467C13.8678 17.3331 15.3715 16.9248 15.4628 17.5435Z" fill="#FEFEFE"/>
<path d="M26.9428 20.1739C26.5978 20.9018 25.7341 21.5239 24.8416 21.0413C23.4904 20.3101 23.5316 18.0904 24.9491 17.4256C25.4316 17.2688 25.8291 17.2966 26.1416 17.5088C27.0383 18.1186 27.3053 19.0069 26.9428 20.1739ZM25.3886 19.6683C25.4388 19.6706 25.4891 19.6628 25.5366 19.6452C25.5841 19.6275 25.6279 19.6005 25.6655 19.5655C25.7031 19.5306 25.7337 19.4884 25.7557 19.4415C25.7777 19.3945 25.7906 19.3437 25.7936 19.2919C25.7997 19.1874 25.7653 19.0852 25.6979 19.0078C25.6306 18.9305 25.5359 18.8844 25.4346 18.8796C25.3844 18.8772 25.3341 18.8851 25.2866 18.9027C25.2391 18.9204 25.1953 18.9474 25.1577 18.9824C25.1201 19.0173 25.0895 19.0595 25.0675 19.1064C25.0455 19.1533 25.0326 19.2041 25.0296 19.2559C25.0235 19.3605 25.0579 19.4627 25.1253 19.54C25.1926 19.6174 25.2873 19.6635 25.3886 19.6683Z" fill="#141319"/>
<path d="M15.4629 17.5436C16.2104 18.1159 16.4837 18.8745 16.2829 19.8195C16.0791 20.7769 15.1254 21.5959 14.0079 21.0131C13.1446 20.3096 12.9458 19.4243 13.4116 18.357C13.7591 17.5616 14.5529 17.1488 15.4629 17.5436ZM14.979 19.6499C15.0756 19.622 15.1549 19.558 15.1996 19.4719C15.2442 19.3859 15.2505 19.2849 15.2171 19.1912C15.1836 19.0974 15.1132 19.0186 15.0212 18.972C14.9293 18.9255 14.8234 18.915 14.7268 18.9429C14.6302 18.9708 14.5509 19.0348 14.5062 19.1209C14.4616 19.2069 14.4553 19.3079 14.4887 19.4016C14.5221 19.4954 14.5926 19.5742 14.6845 19.6208C14.7765 19.6673 14.8824 19.6778 14.979 19.6499Z" fill="#141319"/>
<path d="M31.2316 21.1966C31.1694 21.1786 31.1167 21.1407 31.0838 21.0902C31.0508 21.0397 31.0398 20.9803 31.0529 20.9232C31.0966 20.7252 31.0716 20.5238 31.1154 20.3326C31.3195 19.4378 31.6929 18.6698 32.2354 18.0286C32.3562 17.8853 32.5104 17.8842 32.6979 18.0252C34.0091 19.0152 33.0466 21.722 31.2316 21.1966Z" fill="#FC8E79"/>
<path d="M7.76664 20.9682C6.91747 20.3015 6.69581 19.5256 7.10164 18.6406C7.27539 18.2637 7.59789 18.0185 8.04789 18.0803C8.09039 18.0856 8.1258 18.1032 8.15414 18.1332C8.83414 18.8285 8.98289 19.6553 9.21039 20.6498C9.27122 20.9131 9.23581 21.119 9.10414 21.2675C9.07331 21.302 9.03289 21.3215 8.98289 21.326C8.52539 21.3657 8.11997 21.2465 7.76664 20.9682Z" fill="#FBA98B"/>
<path d="M25.0296 19.2559C25.0169 19.4737 25.1777 19.6583 25.3886 19.6682C25.5996 19.6782 25.7809 19.5097 25.7936 19.2919C25.8062 19.0741 25.6455 18.8895 25.4346 18.8796C25.2236 18.8696 25.0423 19.0381 25.0296 19.2559Z" fill="#FEFEFE"/>
<path d="M14.4887 19.4016C14.5583 19.5968 14.7778 19.708 14.979 19.6498C15.1801 19.5917 15.2867 19.3863 15.217 19.1911C15.1474 18.9959 14.9279 18.8848 14.7268 18.9429C14.5256 19.001 14.419 19.2064 14.4887 19.4016Z" fill="#FEFEFE"/>
<path d="M20.8303 22.4127C20.5837 22.4974 20.3349 22.5252 20.0841 22.4959C20.0516 22.4921 20.0204 22.4823 19.9924 22.4669C19.9644 22.4516 19.9402 22.4312 19.9214 22.407C19.9026 22.3828 19.8895 22.3553 19.8831 22.3262C19.8767 22.2972 19.877 22.2672 19.8841 22.2383C19.8958 22.1903 19.9345 22.1577 20.0003 22.1404C20.3003 21.9709 20.5116 21.7767 20.6341 21.5577C20.8024 21.2659 20.8012 20.961 20.6303 20.643C20.7353 20.2842 21.1091 20.6869 21.1816 20.8489C21.4624 21.4767 21.3453 21.9979 20.8303 22.4127Z" fill="#FBA98B"/>
<path d="M27.8078 23.3745C27.2245 23.4892 26.7966 23.5462 26.5241 23.5455C25.7028 23.5443 24.3878 22.8615 25.3053 21.9806C25.6028 21.6941 25.9632 21.4875 26.3866 21.3607C27.2403 21.2167 28.0616 21.1515 28.8716 21.0423C29.9778 20.8938 29.2453 22.2191 28.9591 22.5026C28.6116 22.8461 28.2278 23.1367 27.8078 23.3745Z" fill="#FC8E79"/>
<path d="M15.0579 22.4093C16.3004 23.8583 11.6104 24.8055 11.2666 22.3991C11.1891 21.8614 11.4183 21.5426 11.9541 21.4429C13.2616 21.1984 14.2962 21.5205 15.0579 22.4093Z" fill="#FBA98B"/>
<path d="M20.6341 21.5577C20.5116 21.7767 20.3003 21.9709 20.0003 22.1404C19.777 22.0234 19.6924 21.8239 19.7466 21.5419C19.7493 21.5272 19.7584 21.5139 19.7718 21.5049C19.7853 21.4959 19.8022 21.4918 19.8191 21.4935C19.9491 21.51 20.0362 21.5738 20.0803 21.6848C20.0865 21.7001 20.0969 21.7137 20.1106 21.7243C20.1243 21.7349 20.1409 21.7421 20.1586 21.7453C20.1763 21.7484 20.1946 21.7474 20.2118 21.7424C20.229 21.7373 20.2444 21.7283 20.2566 21.7163C20.4132 21.5618 20.5391 21.5089 20.6341 21.5577Z" fill="#FEFEFE"/>
<path d="M32.5403 21.8412C32.2687 22.2649 31.927 22.7093 31.5153 23.1743C31.2845 23.4353 31.1008 23.7481 30.9641 24.1126C30.9524 24.1441 30.9591 24.1714 30.9841 24.1947L31.4716 24.6571C31.4876 24.6722 31.4989 24.6908 31.5044 24.7111C31.51 24.7313 31.5096 24.7525 31.5033 24.7726C31.497 24.7927 31.485 24.811 31.4685 24.8256C31.4519 24.8403 31.4315 24.8508 31.4091 24.8562C31.0808 24.9357 30.7795 25.0673 30.5053 25.2511C30.4931 25.2597 30.4838 25.2712 30.4786 25.2844C30.4735 25.2976 30.4726 25.3119 30.4761 25.3255C30.4797 25.3391 30.4875 25.3515 30.4987 25.3613C30.5098 25.371 30.5239 25.3777 30.5391 25.3804C31.5633 25.5552 32.0549 26.1248 32.0141 27.0893C32.0124 27.1291 32.0299 27.1598 32.0666 27.1816C32.6074 27.5153 32.9553 27.9724 33.1103 28.5529C33.1195 28.5859 33.1174 28.6186 33.1041 28.6508L33.0528 28.7712C33.0328 28.8192 33.0504 28.8503 33.1054 28.8646L33.1816 28.8848C31.7549 29.6881 30.2016 30.2952 28.5216 30.7062C27.7828 29.0738 26.7191 27.9252 24.7441 27.5134C24.0408 27.3664 23.4024 27.3124 22.8291 27.3514C22.4808 27.3522 22.3333 27.2854 22.3866 27.1512C23.8566 26.8887 25.2283 26.4233 26.5016 25.7551C28.1649 24.8918 29.4353 23.6911 30.3128 22.1528C30.3225 22.136 30.3386 22.1229 30.3581 22.1159C30.3776 22.1089 30.3992 22.1084 30.4191 22.1146C31.1133 22.3298 31.8203 22.2387 32.5403 21.8412Z" fill="#D87317"/>
<path d="M10.1365 22.2551C11.5953 24.8089 14.3828 26.4266 17.4615 26.9925L18.3353 27.1252C18.0553 27.5077 17.4878 27.4605 17.0465 27.4931C16.4565 27.4616 16.064 27.4691 15.869 27.5156C14.744 27.7856 13.6203 28.338 12.9028 29.1728C12.574 29.5541 12.1378 30.174 12.0778 30.6622C12.027 30.7732 12.014 30.87 12.039 30.9525C12.0441 30.9696 12.0442 30.9876 12.0392 31.0048C12.0342 31.0219 12.0244 31.0376 12.0107 31.0503C11.9969 31.063 11.9798 31.0723 11.9609 31.0772C11.942 31.0822 11.9219 31.0826 11.9028 31.0785C9.88154 30.6308 7.94279 29.958 6.26904 28.842C6.50238 28.5525 6.77904 28.2983 7.09904 28.0793C7.28987 27.9495 7.44321 27.8126 7.55904 27.6686C8.05529 27.0578 8.39904 26.7574 9.25029 26.6201C9.39779 26.5961 9.41487 26.5399 9.30154 26.4514C9.08654 26.286 8.82404 26.1038 8.69904 25.8698C8.10904 24.7706 9.09654 23.6299 10.3503 23.5387C10.3755 23.5369 10.3997 23.5287 10.4201 23.5151C10.4405 23.5015 10.4562 23.4831 10.4654 23.4619C10.4747 23.4408 10.4771 23.4178 10.4725 23.3956C10.4678 23.3734 10.4562 23.3528 10.439 23.3363C10.3115 23.2114 9.73154 22.3778 10.1365 22.2551Z" fill="#EF8B24"/>
<path d="M22.1729 25.0969C21.9887 24.7512 21.6862 24.5404 21.2654 24.4647C20.5616 24.3375 18.8216 24.2712 18.5029 25.0643C17.8337 24.7433 17.4429 24.2247 17.3304 23.5084C17.3129 23.3982 17.3641 23.3573 17.4841 23.3858C18.6966 23.67 19.9508 23.7702 21.2466 23.6862C22.0266 23.6494 22.802 23.5099 23.5729 23.2677C23.5954 23.2605 23.6196 23.2586 23.6432 23.2621C23.6668 23.2657 23.689 23.2745 23.7078 23.2879C23.7265 23.3013 23.7412 23.3187 23.7504 23.3386C23.7596 23.3585 23.763 23.3801 23.7604 23.4015C23.6629 24.2025 23.1337 24.7677 22.1729 25.0969Z" fill="#2D242F"/>
<path d="M22.1728 25.0969C21.222 25.5686 20.1732 25.647 19.0266 25.332C18.8291 25.2863 18.6545 25.197 18.5028 25.0643C18.8216 24.2711 20.5616 24.3375 21.2653 24.4646C21.6861 24.5404 21.9886 24.7511 22.1728 25.0969Z" fill="#FC8E79"/>
<path d="M18.3354 27.1252C19.9816 27.3244 20.9954 27.2051 22.3866 27.1511C22.3333 27.2854 22.4808 27.3521 22.8291 27.3514L23.8604 27.4987C23.9029 27.5047 23.925 27.5272 23.9266 27.5662C23.9375 27.8715 23.8533 28.1516 23.6741 28.4066C22.4116 30.2066 19.7554 30.4429 17.8991 29.2886C17.6633 29.1416 17.402 28.8405 17.1154 28.3852L16.8904 27.7676C16.912 27.6581 16.9641 27.5666 17.0466 27.4931C17.4879 27.4605 18.0554 27.5077 18.3354 27.1252Z" fill="#FBA98B"/>
<path d="M28.5216 30.7061C27.2958 31.1471 26.1137 31.4951 24.9754 31.7501C25.067 30.6844 25.147 29.6006 25.2154 28.4989C25.2287 28.2971 25.212 28.0879 25.1654 27.8711C25.1613 27.8522 25.1508 27.8349 25.1353 27.8218C25.1198 27.8086 25.1001 27.8003 25.0791 27.798L24.2041 27.6979C24.1433 27.6911 24.105 27.7148 24.0891 27.7688C23.6341 29.3404 22.3191 30.7061 20.4616 30.7928C18.9241 30.8648 17.0066 30.0581 16.6129 28.5371C16.6012 28.4359 16.6079 28.3624 16.6329 28.3166C16.6587 28.2686 16.6783 28.2705 16.6916 28.3223C16.7658 28.599 16.8933 28.8533 17.0741 29.085C17.1008 29.1188 17.1333 29.1248 17.1716 29.103C17.2433 29.0625 17.257 29.001 17.2129 28.9185C17.0787 28.6695 17.0462 28.4918 17.1154 28.3853C17.402 28.8405 17.6633 29.1416 17.8991 29.2886C19.7554 30.4429 22.4116 30.2066 23.6741 28.4066C23.8533 28.1516 23.9374 27.8715 23.9266 27.5663C23.9249 27.5273 23.9029 27.5048 23.8604 27.4988L22.8291 27.3514C23.4024 27.3124 24.0408 27.3664 24.7441 27.5134C26.7191 27.9251 27.7829 29.0738 28.5216 30.7061Z" fill="#6AC38D"/>
<path d="M17.0466 27.4932C16.9641 27.5667 16.9121 27.6582 16.8904 27.7677C16.6396 27.641 16.2791 27.6185 15.8091 27.7002C15.6854 27.7216 15.6754 27.7812 15.6666 27.8813C15.5775 29.3581 15.5533 30.3492 15.5941 30.8547C15.6233 31.208 15.6208 31.4971 15.5866 31.7221L12.4041 30.92C12.1858 30.8825 12.0771 30.7966 12.0779 30.6623C12.1379 30.1741 12.5741 29.5542 12.9029 29.1728C13.6204 28.3381 14.7441 27.7857 15.8691 27.5157C16.0641 27.4692 16.4566 27.4617 17.0466 27.4932Z" fill="#6AC38D"/>
<path d="M16.8904 27.7677L17.1154 28.3853C17.0462 28.4918 17.0787 28.6696 17.2129 28.9186C17.257 29.0011 17.2433 29.0626 17.1716 29.1031C17.1333 29.1248 17.1008 29.1188 17.0741 29.0851C16.8933 28.8533 16.7658 28.5991 16.6916 28.3223C16.6783 28.2706 16.6587 28.2687 16.6329 28.3167C16.6079 28.3624 16.6012 28.4359 16.6129 28.5372L16.5541 28.2964C16.545 28.2567 16.5575 28.2237 16.5916 28.1974C16.8229 28.0231 16.6079 27.6856 16.3304 27.8217C16.2987 27.8374 16.2645 27.8434 16.2279 27.8397C16.0154 27.8149 15.8391 27.6822 15.6666 27.8813C15.6754 27.7812 15.6854 27.7216 15.8091 27.7002C16.2791 27.6184 16.6395 27.6409 16.8904 27.7677Z" fill="#FEC568"/>
<path d="M24.9753 31.7502C21.8616 32.3273 18.6778 32.3385 15.5866 31.722C15.6207 31.497 15.6232 31.2079 15.5941 30.8547C15.5532 30.3492 15.5774 29.358 15.6666 27.8813C15.8391 27.6822 16.0153 27.8149 16.2278 27.8397C16.2645 27.8434 16.2987 27.8374 16.3303 27.8216C16.6078 27.6855 16.8228 28.023 16.5916 28.1974C16.5574 28.2237 16.5449 28.2567 16.5541 28.2964L16.6128 28.5372C17.0066 30.0582 18.9241 30.8648 20.4616 30.7928C22.3191 30.7062 23.6341 29.3404 24.0891 27.7688C24.1049 27.7148 24.1432 27.6912 24.2041 27.6979L25.0791 27.798C25.1001 27.8003 25.1197 27.8087 25.1352 27.8218C25.1507 27.8349 25.1613 27.8522 25.1653 27.8711C25.212 28.0879 25.2287 28.2972 25.2153 28.4989C25.147 29.6007 25.067 30.6844 24.9753 31.7502Z" fill="#EF8B24"/>
</svg>
